<mxfile host="app.diagrams.net" modified="2022-04-25T16:40:48.426Z" agent="5.0 (Windows NT 10.0; Win64; x64) AppleWebKit/537.36 (KHTML, like Gecko) Chrome/100.0.4896.127 Safari/537.36" etag="Ct4KWqYGNJ03ZGToiMYQ" version="17.4.6" type="github" pages="4">
  <diagram id="R2lEEEUBdFMjLlhIrx00" name="Page-1">
    <mxGraphModel dx="2580" dy="898" grid="1" gridSize="10" guides="1" tooltips="1" connect="1" arrows="1" fold="1" page="1" pageScale="1" pageWidth="850" pageHeight="1100" math="0" shadow="0" extFonts="Permanent Marker^https://fonts.googleapis.com/css?family=Permanent+Marker">
      <root>
        <mxCell id="0" />
        <mxCell id="1" parent="0" />
        <mxCell id="uY7E9bYtpIb9jMVkBMFC-43" style="edgeStyle=none;rounded=0;orthogonalLoop=1;jettySize=auto;html=1;endArrow=classicThin;endFill=1;" edge="1" parent="1" source="uY7E9bYtpIb9jMVkBMFC-13" target="uY7E9bYtpIb9jMVkBMFC-15">
          <mxGeometry relative="1" as="geometry" />
        </mxCell>
        <mxCell id="uY7E9bYtpIb9jMVkBMFC-53" style="edgeStyle=none;rounded=0;orthogonalLoop=1;jettySize=auto;html=1;endArrow=classicThin;endFill=1;" edge="1" parent="1" source="uY7E9bYtpIb9jMVkBMFC-13" target="uY7E9bYtpIb9jMVkBMFC-52">
          <mxGeometry relative="1" as="geometry" />
        </mxCell>
        <mxCell id="uY7E9bYtpIb9jMVkBMFC-64" style="edgeStyle=none;rounded=0;orthogonalLoop=1;jettySize=auto;html=1;endArrow=classicThin;endFill=1;" edge="1" parent="1" source="uY7E9bYtpIb9jMVkBMFC-13" target="uY7E9bYtpIb9jMVkBMFC-63">
          <mxGeometry relative="1" as="geometry" />
        </mxCell>
        <mxCell id="uY7E9bYtpIb9jMVkBMFC-13" value="患者" style="rounded=0;whiteSpace=wrap;html=1;" vertex="1" parent="1">
          <mxGeometry x="140" y="660" width="120" height="60" as="geometry" />
        </mxCell>
        <mxCell id="uY7E9bYtpIb9jMVkBMFC-46" style="edgeStyle=none;rounded=0;orthogonalLoop=1;jettySize=auto;html=1;endArrow=classicThin;endFill=1;" edge="1" parent="1" source="uY7E9bYtpIb9jMVkBMFC-14" target="uY7E9bYtpIb9jMVkBMFC-18">
          <mxGeometry relative="1" as="geometry" />
        </mxCell>
        <mxCell id="uY7E9bYtpIb9jMVkBMFC-14" value="管理" style="rhombus;whiteSpace=wrap;html=1;" vertex="1" parent="1">
          <mxGeometry x="600" y="650" width="80" height="80" as="geometry" />
        </mxCell>
        <mxCell id="uY7E9bYtpIb9jMVkBMFC-44" style="edgeStyle=none;rounded=0;orthogonalLoop=1;jettySize=auto;html=1;endArrow=classicThin;endFill=1;" edge="1" parent="1" source="uY7E9bYtpIb9jMVkBMFC-15" target="uY7E9bYtpIb9jMVkBMFC-18">
          <mxGeometry relative="1" as="geometry" />
        </mxCell>
        <mxCell id="uY7E9bYtpIb9jMVkBMFC-15" value="拥有" style="rhombus;whiteSpace=wrap;html=1;" vertex="1" parent="1">
          <mxGeometry x="300" y="650" width="80" height="80" as="geometry" />
        </mxCell>
        <mxCell id="uY7E9bYtpIb9jMVkBMFC-45" style="edgeStyle=none;rounded=0;orthogonalLoop=1;jettySize=auto;html=1;endArrow=classicThin;endFill=1;" edge="1" parent="1" source="uY7E9bYtpIb9jMVkBMFC-16" target="uY7E9bYtpIb9jMVkBMFC-14">
          <mxGeometry relative="1" as="geometry" />
        </mxCell>
        <mxCell id="uY7E9bYtpIb9jMVkBMFC-50" style="edgeStyle=none;rounded=0;orthogonalLoop=1;jettySize=auto;html=1;endArrow=classicThin;endFill=1;" edge="1" parent="1" source="uY7E9bYtpIb9jMVkBMFC-16" target="uY7E9bYtpIb9jMVkBMFC-49">
          <mxGeometry relative="1" as="geometry" />
        </mxCell>
        <mxCell id="uY7E9bYtpIb9jMVkBMFC-69" style="edgeStyle=none;rounded=0;orthogonalLoop=1;jettySize=auto;html=1;endArrow=classicThin;endFill=1;" edge="1" parent="1" source="uY7E9bYtpIb9jMVkBMFC-16" target="uY7E9bYtpIb9jMVkBMFC-37">
          <mxGeometry relative="1" as="geometry">
            <mxPoint x="840" y="330" as="targetPoint" />
          </mxGeometry>
        </mxCell>
        <mxCell id="uY7E9bYtpIb9jMVkBMFC-16" value="医生" style="rounded=0;whiteSpace=wrap;html=1;" vertex="1" parent="1">
          <mxGeometry x="780" y="660" width="120" height="60" as="geometry" />
        </mxCell>
        <mxCell id="uY7E9bYtpIb9jMVkBMFC-35" style="edgeStyle=none;rounded=0;orthogonalLoop=1;jettySize=auto;html=1;endArrow=classicThin;endFill=1;" edge="1" parent="1" source="uY7E9bYtpIb9jMVkBMFC-17" target="uY7E9bYtpIb9jMVkBMFC-34">
          <mxGeometry relative="1" as="geometry" />
        </mxCell>
        <mxCell id="uY7E9bYtpIb9jMVkBMFC-41" style="edgeStyle=none;rounded=0;orthogonalLoop=1;jettySize=auto;html=1;endArrow=classicThin;endFill=1;" edge="1" parent="1" source="uY7E9bYtpIb9jMVkBMFC-17">
          <mxGeometry relative="1" as="geometry">
            <mxPoint x="180" y="210.0000000000001" as="targetPoint" />
          </mxGeometry>
        </mxCell>
        <mxCell id="uY7E9bYtpIb9jMVkBMFC-62" style="edgeStyle=none;rounded=0;orthogonalLoop=1;jettySize=auto;html=1;endArrow=classicThin;endFill=1;" edge="1" parent="1" source="uY7E9bYtpIb9jMVkBMFC-17" target="uY7E9bYtpIb9jMVkBMFC-58">
          <mxGeometry relative="1" as="geometry">
            <Array as="points">
              <mxPoint x="30" y="180" />
            </Array>
          </mxGeometry>
        </mxCell>
        <mxCell id="uY7E9bYtpIb9jMVkBMFC-70" style="edgeStyle=none;rounded=0;orthogonalLoop=1;jettySize=auto;html=1;entryX=0.5;entryY=0;entryDx=0;entryDy=0;endArrow=classicThin;endFill=1;" edge="1" parent="1" source="uY7E9bYtpIb9jMVkBMFC-17" target="uY7E9bYtpIb9jMVkBMFC-40">
          <mxGeometry relative="1" as="geometry" />
        </mxCell>
        <mxCell id="uY7E9bYtpIb9jMVkBMFC-17" value="药剂师" style="rounded=0;whiteSpace=wrap;html=1;" vertex="1" parent="1">
          <mxGeometry x="120" y="150" width="120" height="60" as="geometry" />
        </mxCell>
        <mxCell id="uY7E9bYtpIb9jMVkBMFC-18" value="病历" style="rounded=0;whiteSpace=wrap;html=1;" vertex="1" parent="1">
          <mxGeometry x="430" y="660" width="120" height="60" as="geometry" />
        </mxCell>
        <mxCell id="uY7E9bYtpIb9jMVkBMFC-31" style="rounded=0;orthogonalLoop=1;jettySize=auto;html=1;endArrow=classicThin;endFill=1;" edge="1" parent="1" source="uY7E9bYtpIb9jMVkBMFC-19" target="uY7E9bYtpIb9jMVkBMFC-28">
          <mxGeometry relative="1" as="geometry" />
        </mxCell>
        <mxCell id="uY7E9bYtpIb9jMVkBMFC-19" value="管理员" style="rounded=0;whiteSpace=wrap;html=1;" vertex="1" parent="1">
          <mxGeometry x="120" y="40" width="120" height="60" as="geometry" />
        </mxCell>
        <mxCell id="uY7E9bYtpIb9jMVkBMFC-21" value="药品库存" style="rounded=0;whiteSpace=wrap;html=1;" vertex="1" parent="1">
          <mxGeometry x="420" y="40" width="120" height="60" as="geometry" />
        </mxCell>
        <mxCell id="uY7E9bYtpIb9jMVkBMFC-22" value="药品" style="rounded=0;whiteSpace=wrap;html=1;" vertex="1" parent="1">
          <mxGeometry x="410" y="250" width="120" height="60" as="geometry" />
        </mxCell>
        <mxCell id="uY7E9bYtpIb9jMVkBMFC-23" value="处方" style="rounded=0;whiteSpace=wrap;html=1;" vertex="1" parent="1">
          <mxGeometry x="140" y="860" width="120" height="60" as="geometry" />
        </mxCell>
        <mxCell id="uY7E9bYtpIb9jMVkBMFC-24" value="支付信息" style="rounded=0;whiteSpace=wrap;html=1;" vertex="1" parent="1">
          <mxGeometry x="530" y="410" width="120" height="60" as="geometry" />
        </mxCell>
        <mxCell id="uY7E9bYtpIb9jMVkBMFC-67" style="edgeStyle=none;rounded=0;orthogonalLoop=1;jettySize=auto;html=1;endArrow=classicThin;endFill=1;" edge="1" parent="1" source="uY7E9bYtpIb9jMVkBMFC-25" target="uY7E9bYtpIb9jMVkBMFC-66">
          <mxGeometry relative="1" as="geometry" />
        </mxCell>
        <mxCell id="uY7E9bYtpIb9jMVkBMFC-25" value="订单" style="rounded=0;whiteSpace=wrap;html=1;" vertex="1" parent="1">
          <mxGeometry x="150" y="410" width="120" height="60" as="geometry" />
        </mxCell>
        <mxCell id="uY7E9bYtpIb9jMVkBMFC-33" style="edgeStyle=none;rounded=0;orthogonalLoop=1;jettySize=auto;html=1;endArrow=classicThin;endFill=1;" edge="1" parent="1" source="uY7E9bYtpIb9jMVkBMFC-28" target="uY7E9bYtpIb9jMVkBMFC-21">
          <mxGeometry relative="1" as="geometry" />
        </mxCell>
        <mxCell id="uY7E9bYtpIb9jMVkBMFC-28" value="管理" style="rhombus;whiteSpace=wrap;html=1;" vertex="1" parent="1">
          <mxGeometry x="290" y="30" width="80" height="80" as="geometry" />
        </mxCell>
        <mxCell id="uY7E9bYtpIb9jMVkBMFC-36" style="edgeStyle=none;rounded=0;orthogonalLoop=1;jettySize=auto;html=1;endArrow=classicThin;endFill=1;" edge="1" parent="1" source="uY7E9bYtpIb9jMVkBMFC-34" target="uY7E9bYtpIb9jMVkBMFC-21">
          <mxGeometry relative="1" as="geometry" />
        </mxCell>
        <mxCell id="uY7E9bYtpIb9jMVkBMFC-34" value="拥有" style="rhombus;whiteSpace=wrap;html=1;" vertex="1" parent="1">
          <mxGeometry x="440" y="140" width="80" height="80" as="geometry" />
        </mxCell>
        <mxCell id="uY7E9bYtpIb9jMVkBMFC-38" style="edgeStyle=none;rounded=0;orthogonalLoop=1;jettySize=auto;html=1;endArrow=classicThin;endFill=1;" edge="1" parent="1" source="uY7E9bYtpIb9jMVkBMFC-37" target="uY7E9bYtpIb9jMVkBMFC-22">
          <mxGeometry relative="1" as="geometry" />
        </mxCell>
        <mxCell id="uY7E9bYtpIb9jMVkBMFC-37" value="拥有" style="rhombus;whiteSpace=wrap;html=1;" vertex="1" parent="1">
          <mxGeometry x="800" y="240" width="80" height="80" as="geometry" />
        </mxCell>
        <mxCell id="uY7E9bYtpIb9jMVkBMFC-42" style="edgeStyle=none;rounded=0;orthogonalLoop=1;jettySize=auto;html=1;endArrow=classicThin;endFill=1;" edge="1" parent="1" source="uY7E9bYtpIb9jMVkBMFC-40" target="uY7E9bYtpIb9jMVkBMFC-22">
          <mxGeometry relative="1" as="geometry" />
        </mxCell>
        <mxCell id="uY7E9bYtpIb9jMVkBMFC-40" value="管理" style="rhombus;whiteSpace=wrap;html=1;" vertex="1" parent="1">
          <mxGeometry x="140" y="240" width="80" height="80" as="geometry" />
        </mxCell>
        <mxCell id="uY7E9bYtpIb9jMVkBMFC-51" style="edgeStyle=none;rounded=0;orthogonalLoop=1;jettySize=auto;html=1;endArrow=classicThin;endFill=1;" edge="1" parent="1" source="uY7E9bYtpIb9jMVkBMFC-49" target="uY7E9bYtpIb9jMVkBMFC-23">
          <mxGeometry relative="1" as="geometry" />
        </mxCell>
        <mxCell id="uY7E9bYtpIb9jMVkBMFC-49" value="管理" style="rhombus;whiteSpace=wrap;html=1;" vertex="1" parent="1">
          <mxGeometry x="800" y="850" width="80" height="80" as="geometry" />
        </mxCell>
        <mxCell id="uY7E9bYtpIb9jMVkBMFC-54" style="edgeStyle=none;rounded=0;orthogonalLoop=1;jettySize=auto;html=1;endArrow=classicThin;endFill=1;" edge="1" parent="1" source="uY7E9bYtpIb9jMVkBMFC-52" target="uY7E9bYtpIb9jMVkBMFC-23">
          <mxGeometry relative="1" as="geometry" />
        </mxCell>
        <mxCell id="uY7E9bYtpIb9jMVkBMFC-52" value="拥有" style="rhombus;whiteSpace=wrap;html=1;" vertex="1" parent="1">
          <mxGeometry x="160" y="750" width="80" height="80" as="geometry" />
        </mxCell>
        <mxCell id="uY7E9bYtpIb9jMVkBMFC-60" style="edgeStyle=none;rounded=0;orthogonalLoop=1;jettySize=auto;html=1;endArrow=classicThin;endFill=1;" edge="1" parent="1" target="uY7E9bYtpIb9jMVkBMFC-23">
          <mxGeometry relative="1" as="geometry">
            <mxPoint x="30" y="780" as="sourcePoint" />
            <Array as="points">
              <mxPoint x="30" y="890" />
            </Array>
          </mxGeometry>
        </mxCell>
        <mxCell id="uY7E9bYtpIb9jMVkBMFC-58" value="拥有" style="rhombus;whiteSpace=wrap;html=1;" vertex="1" parent="1">
          <mxGeometry x="-10" y="720" width="80" height="80" as="geometry" />
        </mxCell>
        <mxCell id="uY7E9bYtpIb9jMVkBMFC-65" style="edgeStyle=none;rounded=0;orthogonalLoop=1;jettySize=auto;html=1;entryX=0.417;entryY=0.833;entryDx=0;entryDy=0;entryPerimeter=0;endArrow=classicThin;endFill=1;" edge="1" parent="1" source="uY7E9bYtpIb9jMVkBMFC-63" target="uY7E9bYtpIb9jMVkBMFC-25">
          <mxGeometry relative="1" as="geometry" />
        </mxCell>
        <mxCell id="uY7E9bYtpIb9jMVkBMFC-63" value="拥有" style="rhombus;whiteSpace=wrap;html=1;" vertex="1" parent="1">
          <mxGeometry x="160" y="530" width="80" height="80" as="geometry" />
        </mxCell>
        <mxCell id="uY7E9bYtpIb9jMVkBMFC-68" style="edgeStyle=none;rounded=0;orthogonalLoop=1;jettySize=auto;html=1;entryX=0;entryY=0.5;entryDx=0;entryDy=0;endArrow=classicThin;endFill=1;" edge="1" parent="1" source="uY7E9bYtpIb9jMVkBMFC-66" target="uY7E9bYtpIb9jMVkBMFC-24">
          <mxGeometry relative="1" as="geometry" />
        </mxCell>
        <mxCell id="uY7E9bYtpIb9jMVkBMFC-66" value="拥有" style="rhombus;whiteSpace=wrap;html=1;" vertex="1" parent="1">
          <mxGeometry x="370" y="400" width="80" height="80" as="geometry" />
        </mxCell>
      </root>
    </mxGraphModel>
  </diagram>
  <diagram id="TorP0n3NIhQpavDxAfDY" name="第 2 页">
    <mxGraphModel dx="1038" dy="483" grid="1" gridSize="10" guides="1" tooltips="1" connect="1" arrows="1" fold="1" page="1" pageScale="1" pageWidth="827" pageHeight="1169" math="0" shadow="0">
      <root>
        <mxCell id="0" />
        <mxCell id="1" parent="0" />
        <mxCell id="TuiO1ikeX9fcjSL5zNRr-12" style="edgeStyle=none;rounded=0;orthogonalLoop=1;jettySize=auto;html=1;fontFamily=Helvetica;fontSize=21;fontColor=default;endArrow=none;endFill=0;" edge="1" parent="1" source="TuiO1ikeX9fcjSL5zNRr-1" target="TuiO1ikeX9fcjSL5zNRr-10">
          <mxGeometry relative="1" as="geometry" />
        </mxCell>
        <mxCell id="TuiO1ikeX9fcjSL5zNRr-13" style="edgeStyle=none;rounded=0;orthogonalLoop=1;jettySize=auto;html=1;fontFamily=Helvetica;fontSize=21;fontColor=default;endArrow=none;endFill=0;" edge="1" parent="1" source="TuiO1ikeX9fcjSL5zNRr-1" target="TuiO1ikeX9fcjSL5zNRr-9">
          <mxGeometry relative="1" as="geometry" />
        </mxCell>
        <mxCell id="TuiO1ikeX9fcjSL5zNRr-14" style="edgeStyle=none;rounded=0;orthogonalLoop=1;jettySize=auto;html=1;fontFamily=Helvetica;fontSize=21;fontColor=default;endArrow=none;endFill=0;" edge="1" parent="1" source="TuiO1ikeX9fcjSL5zNRr-1" target="TuiO1ikeX9fcjSL5zNRr-8">
          <mxGeometry relative="1" as="geometry" />
        </mxCell>
        <mxCell id="TuiO1ikeX9fcjSL5zNRr-15" style="edgeStyle=none;rounded=0;orthogonalLoop=1;jettySize=auto;html=1;fontFamily=Helvetica;fontSize=21;fontColor=default;endArrow=none;endFill=0;" edge="1" parent="1" source="TuiO1ikeX9fcjSL5zNRr-1" target="TuiO1ikeX9fcjSL5zNRr-7">
          <mxGeometry relative="1" as="geometry" />
        </mxCell>
        <mxCell id="TuiO1ikeX9fcjSL5zNRr-16" style="edgeStyle=none;rounded=0;orthogonalLoop=1;jettySize=auto;html=1;fontFamily=Helvetica;fontSize=21;fontColor=default;endArrow=none;endFill=0;" edge="1" parent="1" source="TuiO1ikeX9fcjSL5zNRr-1" target="TuiO1ikeX9fcjSL5zNRr-6">
          <mxGeometry relative="1" as="geometry" />
        </mxCell>
        <mxCell id="TuiO1ikeX9fcjSL5zNRr-17" style="edgeStyle=none;rounded=0;orthogonalLoop=1;jettySize=auto;html=1;fontFamily=Helvetica;fontSize=21;fontColor=default;endArrow=none;endFill=0;" edge="1" parent="1" source="TuiO1ikeX9fcjSL5zNRr-1" target="TuiO1ikeX9fcjSL5zNRr-5">
          <mxGeometry relative="1" as="geometry" />
        </mxCell>
        <mxCell id="TuiO1ikeX9fcjSL5zNRr-18" style="edgeStyle=none;rounded=0;orthogonalLoop=1;jettySize=auto;html=1;fontFamily=Helvetica;fontSize=21;fontColor=default;endArrow=none;endFill=0;" edge="1" parent="1" source="TuiO1ikeX9fcjSL5zNRr-1" target="TuiO1ikeX9fcjSL5zNRr-4">
          <mxGeometry relative="1" as="geometry" />
        </mxCell>
        <mxCell id="TuiO1ikeX9fcjSL5zNRr-19" style="edgeStyle=none;rounded=0;orthogonalLoop=1;jettySize=auto;html=1;fontFamily=Helvetica;fontSize=21;fontColor=default;endArrow=none;endFill=0;" edge="1" parent="1" source="TuiO1ikeX9fcjSL5zNRr-1" target="TuiO1ikeX9fcjSL5zNRr-2">
          <mxGeometry relative="1" as="geometry" />
        </mxCell>
        <mxCell id="TuiO1ikeX9fcjSL5zNRr-20" style="edgeStyle=none;rounded=0;orthogonalLoop=1;jettySize=auto;html=1;fontFamily=Helvetica;fontSize=21;fontColor=default;endArrow=none;endFill=0;" edge="1" parent="1" source="TuiO1ikeX9fcjSL5zNRr-1" target="TuiO1ikeX9fcjSL5zNRr-3">
          <mxGeometry relative="1" as="geometry" />
        </mxCell>
        <mxCell id="TuiO1ikeX9fcjSL5zNRr-1" value="患者" style="rounded=0;whiteSpace=wrap;html=1;fontSize=21;" vertex="1" parent="1">
          <mxGeometry x="350" y="250" width="120" height="60" as="geometry" />
        </mxCell>
        <mxCell id="TuiO1ikeX9fcjSL5zNRr-2" value="&lt;font style=&quot;font-size: 21px;&quot;&gt;id&lt;/font&gt;" style="ellipse;whiteSpace=wrap;html=1;fontSize=21;" vertex="1" parent="1">
          <mxGeometry x="294" y="70" width="120" height="80" as="geometry" />
        </mxCell>
        <mxCell id="TuiO1ikeX9fcjSL5zNRr-3" value="姓名" style="ellipse;whiteSpace=wrap;html=1;fontSize=21;" vertex="1" parent="1">
          <mxGeometry x="190" y="150" width="120" height="80" as="geometry" />
        </mxCell>
        <mxCell id="TuiO1ikeX9fcjSL5zNRr-4" value="生日" style="ellipse;whiteSpace=wrap;html=1;fontSize=21;" vertex="1" parent="1">
          <mxGeometry x="160" y="250" width="120" height="80" as="geometry" />
        </mxCell>
        <mxCell id="TuiO1ikeX9fcjSL5zNRr-5" value="身份证号" style="ellipse;whiteSpace=wrap;html=1;fontSize=21;" vertex="1" parent="1">
          <mxGeometry x="174" y="340" width="120" height="80" as="geometry" />
        </mxCell>
        <mxCell id="TuiO1ikeX9fcjSL5zNRr-6" value="职业" style="ellipse;whiteSpace=wrap;html=1;fontSize=21;" vertex="1" parent="1">
          <mxGeometry x="320" y="380" width="120" height="80" as="geometry" />
        </mxCell>
        <mxCell id="TuiO1ikeX9fcjSL5zNRr-7" value="电话" style="ellipse;whiteSpace=wrap;html=1;fontSize=21;" vertex="1" parent="1">
          <mxGeometry x="460" y="380" width="120" height="80" as="geometry" />
        </mxCell>
        <mxCell id="TuiO1ikeX9fcjSL5zNRr-8" value="性别" style="ellipse;whiteSpace=wrap;html=1;fontSize=21;" vertex="1" parent="1">
          <mxGeometry x="520" y="280" width="120" height="80" as="geometry" />
        </mxCell>
        <mxCell id="TuiO1ikeX9fcjSL5zNRr-9" value="年龄" style="ellipse;whiteSpace=wrap;html=1;fontSize=21;" vertex="1" parent="1">
          <mxGeometry x="570" y="170" width="120" height="80" as="geometry" />
        </mxCell>
        <mxCell id="TuiO1ikeX9fcjSL5zNRr-10" value="工作单位" style="ellipse;whiteSpace=wrap;html=1;fontSize=21;" vertex="1" parent="1">
          <mxGeometry x="470" y="100" width="120" height="80" as="geometry" />
        </mxCell>
      </root>
    </mxGraphModel>
  </diagram>
  <diagram id="hadG1VR05ZEIkQp3sjcM" name="第 3 页">
    <mxGraphModel dx="1038" dy="483" grid="1" gridSize="10" guides="1" tooltips="1" connect="1" arrows="1" fold="1" page="1" pageScale="1" pageWidth="827" pageHeight="1169" math="0" shadow="0">
      <root>
        <mxCell id="0" />
        <mxCell id="1" parent="0" />
        <mxCell id="MOh-h57dz2v4LBhrLHe_-13" style="edgeStyle=none;rounded=0;orthogonalLoop=1;jettySize=auto;html=1;fontFamily=Helvetica;fontSize=21;fontColor=default;endArrow=none;endFill=0;" edge="1" parent="1" source="MOh-h57dz2v4LBhrLHe_-1" target="MOh-h57dz2v4LBhrLHe_-10">
          <mxGeometry relative="1" as="geometry" />
        </mxCell>
        <mxCell id="MOh-h57dz2v4LBhrLHe_-14" style="edgeStyle=none;rounded=0;orthogonalLoop=1;jettySize=auto;html=1;fontFamily=Helvetica;fontSize=21;fontColor=default;endArrow=none;endFill=0;" edge="1" parent="1" source="MOh-h57dz2v4LBhrLHe_-1" target="MOh-h57dz2v4LBhrLHe_-9">
          <mxGeometry relative="1" as="geometry" />
        </mxCell>
        <mxCell id="MOh-h57dz2v4LBhrLHe_-15" style="edgeStyle=none;rounded=0;orthogonalLoop=1;jettySize=auto;html=1;fontFamily=Helvetica;fontSize=21;fontColor=default;endArrow=none;endFill=0;" edge="1" parent="1" source="MOh-h57dz2v4LBhrLHe_-1" target="MOh-h57dz2v4LBhrLHe_-8">
          <mxGeometry relative="1" as="geometry" />
        </mxCell>
        <mxCell id="MOh-h57dz2v4LBhrLHe_-16" style="edgeStyle=none;rounded=0;orthogonalLoop=1;jettySize=auto;html=1;fontFamily=Helvetica;fontSize=21;fontColor=default;endArrow=none;endFill=0;" edge="1" parent="1" source="MOh-h57dz2v4LBhrLHe_-1" target="MOh-h57dz2v4LBhrLHe_-7">
          <mxGeometry relative="1" as="geometry" />
        </mxCell>
        <mxCell id="MOh-h57dz2v4LBhrLHe_-17" style="edgeStyle=none;rounded=0;orthogonalLoop=1;jettySize=auto;html=1;fontFamily=Helvetica;fontSize=21;fontColor=default;endArrow=none;endFill=0;" edge="1" parent="1" source="MOh-h57dz2v4LBhrLHe_-1" target="MOh-h57dz2v4LBhrLHe_-6">
          <mxGeometry relative="1" as="geometry" />
        </mxCell>
        <mxCell id="MOh-h57dz2v4LBhrLHe_-18" style="edgeStyle=none;rounded=0;orthogonalLoop=1;jettySize=auto;html=1;fontFamily=Helvetica;fontSize=21;fontColor=default;endArrow=none;endFill=0;" edge="1" parent="1" source="MOh-h57dz2v4LBhrLHe_-1" target="MOh-h57dz2v4LBhrLHe_-5">
          <mxGeometry relative="1" as="geometry" />
        </mxCell>
        <mxCell id="MOh-h57dz2v4LBhrLHe_-19" style="edgeStyle=none;rounded=0;orthogonalLoop=1;jettySize=auto;html=1;fontFamily=Helvetica;fontSize=21;fontColor=default;endArrow=none;endFill=0;" edge="1" parent="1" source="MOh-h57dz2v4LBhrLHe_-1" target="MOh-h57dz2v4LBhrLHe_-4">
          <mxGeometry relative="1" as="geometry" />
        </mxCell>
        <mxCell id="MOh-h57dz2v4LBhrLHe_-20" style="edgeStyle=none;rounded=0;orthogonalLoop=1;jettySize=auto;html=1;fontFamily=Helvetica;fontSize=21;fontColor=default;endArrow=none;endFill=0;" edge="1" parent="1" source="MOh-h57dz2v4LBhrLHe_-1" target="MOh-h57dz2v4LBhrLHe_-3">
          <mxGeometry relative="1" as="geometry" />
        </mxCell>
        <mxCell id="MOh-h57dz2v4LBhrLHe_-21" style="edgeStyle=none;rounded=0;orthogonalLoop=1;jettySize=auto;html=1;fontFamily=Helvetica;fontSize=21;fontColor=default;endArrow=none;endFill=0;" edge="1" parent="1" source="MOh-h57dz2v4LBhrLHe_-1" target="MOh-h57dz2v4LBhrLHe_-2">
          <mxGeometry relative="1" as="geometry" />
        </mxCell>
        <mxCell id="MOh-h57dz2v4LBhrLHe_-1" value="医生" style="rounded=0;whiteSpace=wrap;html=1;fontFamily=Helvetica;fontSize=21;fontColor=default;strokeColor=default;fillColor=default;" vertex="1" parent="1">
          <mxGeometry x="360" y="160" width="120" height="60" as="geometry" />
        </mxCell>
        <mxCell id="MOh-h57dz2v4LBhrLHe_-2" value="职位" style="ellipse;whiteSpace=wrap;html=1;fontFamily=Helvetica;fontSize=21;fontColor=default;strokeColor=default;fillColor=default;" vertex="1" parent="1">
          <mxGeometry x="230" y="60" width="120" height="80" as="geometry" />
        </mxCell>
        <mxCell id="MOh-h57dz2v4LBhrLHe_-3" value="性别" style="ellipse;whiteSpace=wrap;html=1;fontFamily=Helvetica;fontSize=21;fontColor=default;strokeColor=default;fillColor=default;" vertex="1" parent="1">
          <mxGeometry x="150" y="130" width="120" height="80" as="geometry" />
        </mxCell>
        <mxCell id="MOh-h57dz2v4LBhrLHe_-4" value="电话" style="ellipse;whiteSpace=wrap;html=1;fontFamily=Helvetica;fontSize=21;fontColor=default;strokeColor=default;fillColor=default;" vertex="1" parent="1">
          <mxGeometry x="170" y="230" width="120" height="80" as="geometry" />
        </mxCell>
        <mxCell id="MOh-h57dz2v4LBhrLHe_-5" value="年龄" style="ellipse;whiteSpace=wrap;html=1;fontFamily=Helvetica;fontSize=21;fontColor=default;strokeColor=default;fillColor=default;" vertex="1" parent="1">
          <mxGeometry x="280" y="300" width="120" height="80" as="geometry" />
        </mxCell>
        <mxCell id="MOh-h57dz2v4LBhrLHe_-6" value="工号" style="ellipse;whiteSpace=wrap;html=1;fontFamily=Helvetica;fontSize=21;fontColor=default;strokeColor=default;fillColor=default;" vertex="1" parent="1">
          <mxGeometry x="413.5" y="310" width="120" height="80" as="geometry" />
        </mxCell>
        <mxCell id="MOh-h57dz2v4LBhrLHe_-7" value="科室" style="ellipse;whiteSpace=wrap;html=1;fontFamily=Helvetica;fontSize=21;fontColor=default;strokeColor=default;fillColor=default;" vertex="1" parent="1">
          <mxGeometry x="540" y="260" width="120" height="80" as="geometry" />
        </mxCell>
        <mxCell id="MOh-h57dz2v4LBhrLHe_-8" value="生日" style="ellipse;whiteSpace=wrap;html=1;fontFamily=Helvetica;fontSize=21;fontColor=default;strokeColor=default;fillColor=default;" vertex="1" parent="1">
          <mxGeometry x="560" y="161" width="120" height="80" as="geometry" />
        </mxCell>
        <mxCell id="MOh-h57dz2v4LBhrLHe_-9" value="姓名" style="ellipse;whiteSpace=wrap;html=1;fontFamily=Helvetica;fontSize=21;fontColor=default;strokeColor=default;fillColor=default;" vertex="1" parent="1">
          <mxGeometry x="510" y="60" width="120" height="80" as="geometry" />
        </mxCell>
        <mxCell id="MOh-h57dz2v4LBhrLHe_-10" value="id" style="ellipse;whiteSpace=wrap;html=1;fontFamily=Helvetica;fontSize=21;fontColor=default;strokeColor=default;fillColor=default;" vertex="1" parent="1">
          <mxGeometry x="360" y="20" width="120" height="80" as="geometry" />
        </mxCell>
      </root>
    </mxGraphModel>
  </diagram>
  <diagram id="EjU5wLAt_PmvkanEHdvI" name="第 4 页">
    <mxGraphModel dx="1038" dy="483" grid="1" gridSize="10" guides="1" tooltips="1" connect="1" arrows="1" fold="1" page="1" pageScale="1" pageWidth="827" pageHeight="1169" math="0" shadow="0">
      <root>
        <mxCell id="0" />
        <mxCell id="1" parent="0" />
        <mxCell id="fShTHMHh3q05o33s3Hun-1" value="性别" style="ellipse;whiteSpace=wrap;html=1;fontFamily=Helvetica;fontSize=21;fontColor=default;strokeColor=default;fillColor=default;" vertex="1" parent="1">
          <mxGeometry x="170" y="150" width="120" height="80" as="geometry" />
        </mxCell>
        <mxCell id="xugOmylKjbmE6fKXPhT9-10" style="edgeStyle=none;rounded=0;orthogonalLoop=1;jettySize=auto;html=1;fontFamily=Helvetica;fontSize=21;fontColor=default;endArrow=none;endFill=0;" edge="1" parent="1" source="fShTHMHh3q05o33s3Hun-2" target="xugOmylKjbmE6fKXPhT9-3">
          <mxGeometry relative="1" as="geometry" />
        </mxCell>
        <mxCell id="xugOmylKjbmE6fKXPhT9-11" style="edgeStyle=none;rounded=0;orthogonalLoop=1;jettySize=auto;html=1;fontFamily=Helvetica;fontSize=21;fontColor=default;endArrow=none;endFill=0;" edge="1" parent="1" source="fShTHMHh3q05o33s3Hun-2" target="xugOmylKjbmE6fKXPhT9-7">
          <mxGeometry relative="1" as="geometry" />
        </mxCell>
        <mxCell id="xugOmylKjbmE6fKXPhT9-12" style="edgeStyle=none;rounded=0;orthogonalLoop=1;jettySize=auto;html=1;fontFamily=Helvetica;fontSize=21;fontColor=default;endArrow=none;endFill=0;" edge="1" parent="1" source="fShTHMHh3q05o33s3Hun-2" target="xugOmylKjbmE6fKXPhT9-9">
          <mxGeometry relative="1" as="geometry" />
        </mxCell>
        <mxCell id="xugOmylKjbmE6fKXPhT9-13" style="edgeStyle=none;rounded=0;orthogonalLoop=1;jettySize=auto;html=1;fontFamily=Helvetica;fontSize=21;fontColor=default;endArrow=none;endFill=0;" edge="1" parent="1" source="fShTHMHh3q05o33s3Hun-2" target="xugOmylKjbmE6fKXPhT9-4">
          <mxGeometry relative="1" as="geometry" />
        </mxCell>
        <mxCell id="xugOmylKjbmE6fKXPhT9-14" style="edgeStyle=none;rounded=0;orthogonalLoop=1;jettySize=auto;html=1;fontFamily=Helvetica;fontSize=21;fontColor=default;endArrow=none;endFill=0;" edge="1" parent="1" source="fShTHMHh3q05o33s3Hun-2" target="xugOmylKjbmE6fKXPhT9-5">
          <mxGeometry relative="1" as="geometry" />
        </mxCell>
        <mxCell id="xugOmylKjbmE6fKXPhT9-15" style="edgeStyle=none;rounded=0;orthogonalLoop=1;jettySize=auto;html=1;fontFamily=Helvetica;fontSize=21;fontColor=default;endArrow=none;endFill=0;" edge="1" parent="1" source="fShTHMHh3q05o33s3Hun-2" target="xugOmylKjbmE6fKXPhT9-6">
          <mxGeometry relative="1" as="geometry" />
        </mxCell>
        <mxCell id="xugOmylKjbmE6fKXPhT9-16" style="edgeStyle=none;rounded=0;orthogonalLoop=1;jettySize=auto;html=1;fontFamily=Helvetica;fontSize=21;fontColor=default;endArrow=none;endFill=0;" edge="1" parent="1" source="fShTHMHh3q05o33s3Hun-2" target="fShTHMHh3q05o33s3Hun-1">
          <mxGeometry relative="1" as="geometry" />
        </mxCell>
        <mxCell id="xugOmylKjbmE6fKXPhT9-17" style="edgeStyle=none;rounded=0;orthogonalLoop=1;jettySize=auto;html=1;fontFamily=Helvetica;fontSize=21;fontColor=default;endArrow=none;endFill=0;" edge="1" parent="1" source="fShTHMHh3q05o33s3Hun-2" target="xugOmylKjbmE6fKXPhT9-1">
          <mxGeometry relative="1" as="geometry" />
        </mxCell>
        <mxCell id="xugOmylKjbmE6fKXPhT9-18" style="edgeStyle=none;rounded=0;orthogonalLoop=1;jettySize=auto;html=1;fontFamily=Helvetica;fontSize=21;fontColor=default;endArrow=none;endFill=0;" edge="1" parent="1" source="fShTHMHh3q05o33s3Hun-2" target="xugOmylKjbmE6fKXPhT9-2">
          <mxGeometry relative="1" as="geometry" />
        </mxCell>
        <mxCell id="xugOmylKjbmE6fKXPhT9-19" style="edgeStyle=none;rounded=0;orthogonalLoop=1;jettySize=auto;html=1;fontFamily=Helvetica;fontSize=21;fontColor=default;endArrow=none;endFill=0;" edge="1" parent="1" source="fShTHMHh3q05o33s3Hun-2" target="xugOmylKjbmE6fKXPhT9-8">
          <mxGeometry relative="1" as="geometry" />
        </mxCell>
        <mxCell id="fShTHMHh3q05o33s3Hun-2" value="药剂师" style="rounded=0;whiteSpace=wrap;html=1;fontFamily=Helvetica;fontSize=21;fontColor=default;strokeColor=default;fillColor=default;" vertex="1" parent="1">
          <mxGeometry x="414" y="180" width="150" height="90" as="geometry" />
        </mxCell>
        <mxCell id="xugOmylKjbmE6fKXPhT9-1" value="职位" style="ellipse;whiteSpace=wrap;html=1;fontFamily=Helvetica;fontSize=21;fontColor=default;strokeColor=default;fillColor=default;" vertex="1" parent="1">
          <mxGeometry x="220" y="60" width="120" height="80" as="geometry" />
        </mxCell>
        <mxCell id="xugOmylKjbmE6fKXPhT9-2" value="id" style="ellipse;whiteSpace=wrap;html=1;fontFamily=Helvetica;fontSize=21;fontColor=default;strokeColor=default;fillColor=default;" vertex="1" parent="1">
          <mxGeometry x="370" y="30" width="120" height="80" as="geometry" />
        </mxCell>
        <mxCell id="xugOmylKjbmE6fKXPhT9-3" value="生日" style="ellipse;whiteSpace=wrap;html=1;fontFamily=Helvetica;fontSize=21;fontColor=default;strokeColor=default;fillColor=default;" vertex="1" parent="1">
          <mxGeometry x="620" y="110" width="120" height="80" as="geometry" />
        </mxCell>
        <mxCell id="xugOmylKjbmE6fKXPhT9-4" value="工号" style="ellipse;whiteSpace=wrap;html=1;fontFamily=Helvetica;fontSize=21;fontColor=default;strokeColor=default;fillColor=default;" vertex="1" parent="1">
          <mxGeometry x="450" y="330" width="120" height="80" as="geometry" />
        </mxCell>
        <mxCell id="xugOmylKjbmE6fKXPhT9-5" value="年龄" style="ellipse;whiteSpace=wrap;html=1;fontFamily=Helvetica;fontSize=21;fontColor=default;strokeColor=default;fillColor=default;" vertex="1" parent="1">
          <mxGeometry x="280" y="340" width="120" height="80" as="geometry" />
        </mxCell>
        <mxCell id="xugOmylKjbmE6fKXPhT9-6" value="电话" style="ellipse;whiteSpace=wrap;html=1;fontFamily=Helvetica;fontSize=21;fontColor=default;strokeColor=default;fillColor=default;" vertex="1" parent="1">
          <mxGeometry x="180" y="260" width="120" height="80" as="geometry" />
        </mxCell>
        <mxCell id="xugOmylKjbmE6fKXPhT9-7" value="部门" style="ellipse;whiteSpace=wrap;html=1;fontFamily=Helvetica;fontSize=21;fontColor=default;strokeColor=default;fillColor=default;" vertex="1" parent="1">
          <mxGeometry x="660" y="230" width="120" height="80" as="geometry" />
        </mxCell>
        <mxCell id="xugOmylKjbmE6fKXPhT9-8" value="姓名" style="ellipse;whiteSpace=wrap;html=1;fontFamily=Helvetica;fontSize=21;fontColor=default;strokeColor=default;fillColor=default;" vertex="1" parent="1">
          <mxGeometry x="510" y="40" width="120" height="80" as="geometry" />
        </mxCell>
        <mxCell id="xugOmylKjbmE6fKXPhT9-9" value="药房" style="ellipse;whiteSpace=wrap;html=1;fontFamily=Helvetica;fontSize=21;fontColor=default;strokeColor=default;fillColor=default;" vertex="1" parent="1">
          <mxGeometry x="610" y="310" width="120" height="80" as="geometry" />
        </mxCell>
      </root>
    </mxGraphModel>
  </diagram>
</mxfile>
